<?xml version="1.0" standalone="no"?>
<!DOCTYPE svg PUBLIC "-//W3C//DTD SVG 20010904//EN"
 "http://www.w3.org/TR/2001/REC-SVG-20010904/DTD/svg10.dtd">
<svg version="1.0" xmlns="http://www.w3.org/2000/svg"
 width="500.000000pt" height="500.000000pt" viewBox="0 0 500.000000 500.000000"
 preserveAspectRatio="xMidYMid meet">
<metadata>
Created by potrace 1.14, written by Peter Selinger 2001-2017
</metadata>
<g transform="translate(0.000000,500.000000) scale(0.100000,-0.100000)"
fill="#000000" stroke="none">
<path d="M1435 3701 c-30 -7 -29 -7 12 -13 63 -9 127 -44 156 -85 15 -20 25
-39 23 -41 -2 -2 -27 8 -55 23 -118 59 -249 70 -342 26 -46 -22 -126 -87 -117
-96 2 -3 31 0 64 6 75 14 197 5 293 -21 105 -30 109 -35 28 -37 -246 -9 -406
-139 -467 -379 -23 -88 -26 -121 -9 -89 56 103 158 188 312 264 58 28 110 51
115 51 5 0 -2 -28 -16 -62 -21 -53 -26 -83 -30 -186 -3 -84 -1 -127 7 -135 8
-8 11 -4 11 14 0 43 38 141 77 197 32 48 147 162 162 162 3 0 14 -14 23 -30
11 -19 28 -33 46 -36 28 -6 29 -9 35 -74 7 -83 61 -248 117 -359 22 -45 83
-155 134 -244 180 -312 233 -440 277 -670 15 -78 28 -275 22 -334 l-6 -53
-218 0 c-212 0 -219 1 -219 20 0 11 4 20 9 20 5 0 17 7 25 16 14 13 16 55 16
308 0 214 -3 295 -12 304 -7 7 -31 12 -55 12 l-43 0 0 58 c0 32 5 63 11 69 6
6 9 28 7 49 l-3 39 -115 0 -115 0 3 -108 4 -107 -46 0 c-57 0 -66 -15 -66
-107 0 -64 -1 -66 -16 -45 -14 20 -23 22 -123 22 -70 0 -111 -4 -119 -12 -7
-7 -12 -29 -12 -50 0 -38 0 -38 -40 -38 -22 0 -40 5 -40 10 0 6 -11 10 -25 10
-14 0 -25 -4 -25 -10 0 -5 -8 -10 -18 -10 -10 0 -28 -7 -40 -16 -21 -15 -22
-20 -22 -210 0 -116 4 -203 10 -215 9 -16 7 -19 -15 -19 -23 0 -26 -4 -23 -27
l3 -28 1573 -3 1572 -2 0 30 0 30 -104 0 -104 0 11 30 c6 17 17 30 24 30 28 0
33 43 33 319 0 315 1 311 -72 311 l-41 0 7 110 7 110 -116 0 -117 0 7 -110 8
-110 -45 0 c-24 0 -49 -5 -56 -12 -8 -8 -13 -52 -14 -123 -1 -60 -3 -90 -5
-65 -3 24 -9 50 -15 57 -7 9 -44 13 -124 13 -125 0 -134 -4 -134 -69 0 -29 -3
-31 -34 -31 -21 0 -36 6 -40 15 -3 8 -12 15 -19 15 -8 0 -20 -7 -27 -15 -7 -8
-23 -15 -35 -15 -43 0 -46 -15 -43 -239 l3 -211 -196 0 -197 0 -6 33 c-9 47
10 262 34 377 39 191 105 346 260 610 166 285 245 472 257 613 5 60 8 68 29
73 13 4 35 20 49 36 l25 29 29 -20 c52 -38 139 -140 165 -195 15 -31 32 -81
39 -113 11 -48 15 -54 20 -33 11 40 8 184 -4 242 -6 29 -20 70 -31 91 -11 22
-18 40 -16 42 2 2 33 -10 71 -25 159 -68 294 -171 348 -264 28 -49 29 -50 23
-16 -24 140 -66 236 -137 316 -79 87 -215 143 -352 144 -74 1 -60 10 54 39 90
22 234 28 304 12 46 -11 47 -2 2 38 -112 98 -260 110 -418 36 -32 -15 -60 -25
-63 -22 -10 10 62 81 101 98 22 10 58 19 80 19 59 2 15 18 -51 19 -89 2 -194
-39 -286 -111 l-37 -29 -60 31 c-193 97 -397 75 -551 -61 l-35 -30 35 5 c19 3
94 9 165 12 139 7 241 -4 308 -34 l39 -17 -64 -2 c-176 -5 -323 -83 -414 -220
-37 -56 -109 -241 -98 -252 3 -3 13 4 22 16 29 36 184 173 243 213 55 38 121
70 143 70 6 0 -20 -33 -59 -72 -39 -40 -85 -98 -102 -128 -64 -112 -111 -312
-97 -408 l6 -43 57 103 c110 201 258 394 374 488 l60 49 32 -27 c36 -30 36
-33 8 -147 -26 -108 -114 -272 -278 -515 -170 -252 -250 -404 -304 -571 -42
-133 -72 -286 -78 -401 l-6 -98 -27 0 -27 0 -6 113 c-10 203 -71 434 -167 633
-27 57 -119 206 -203 331 -217 323 -272 431 -301 583 l-12 65 33 33 34 34 118
-119 c125 -125 222 -260 321 -443 l51 -95 -4 120 c-8 201 -68 344 -201 478
-69 69 -68 74 8 42 54 -23 168 -109 263 -199 l91 -86 -15 57 c-68 260 -259
421 -503 424 l-65 0 55 20 c100 36 222 45 366 28 l127 -15 -44 38 c-65 56
-153 96 -239 109 -94 15 -197 -4 -295 -52 -62 -30 -66 -31 -87 -15 -66 48
-117 78 -164 95 -59 22 -155 33 -199 22z m374 -1353 c-2 -31 -2 -31 -6 -5 l-4
27 -89 0 -89 0 -4 -27 c-4 -26 -4 -26 -6 5 l-1 32 100 0 100 0 -1 -32z m2071
2 c0 -16 -4 -30 -10 -30 -5 0 -10 11 -10 25 0 25 -1 25 -85 25 -84 0 -85 0
-85 -25 0 -14 -4 -25 -10 -25 -5 0 -10 14 -10 30 l0 30 105 0 105 0 0 -30z
m-26 -38 c3 -21 6 -58 6 -84 l0 -48 -85 0 -85 0 0 54 c0 93 8 114 44 118 17 2
50 1 72 0 39 -4 42 -6 48 -40z m-2070 1 c3 -21 6 -59 6 -85 l0 -48 -85 0 -85
0 0 59 c0 33 5 63 10 66 6 3 10 15 10 26 0 17 7 19 69 19 l68 0 7 -37z m-240
-168 c-6 -16 -34 -21 -34 -7 0 13 11 22 26 22 8 0 11 -6 8 -15z m309 -6 c3
-11 15 -23 26 -26 59 -15 1 -23 -174 -23 -107 0 -195 2 -195 5 0 3 12 10 26
15 14 6 28 19 31 30 5 19 14 20 143 20 131 0 138 -1 143 -21z m45 2 c3 -8 -1
-12 -9 -9 -7 2 -15 10 -17 17 -3 8 1 12 9 9 7 -2 15 -10 17 -17z m1712 10 c0
-12 -20 -25 -27 -18 -7 7 6 27 18 27 5 0 9 -4 9 -9z m313 -12 c3 -11 15 -23
26 -26 59 -15 1 -23 -175 -23 l-196 0 34 34 33 33 136 2 c130 1 137 0 142 -20z
m45 -2 c3 -16 1 -17 -17 -7 -25 13 -28 33 -4 28 10 -2 19 -11 21 -21z m2 -72
c0 -13 -28 -15 -195 -15 -117 0 -195 4 -195 10 0 10 73 15 268 18 103 2 122 0
122 -13z m-2070 -5 c0 -6 -72 -10 -195 -10 -123 0 -195 4 -195 10 0 6 72 10
195 10 123 0 195 -4 195 -10z m-443 -75 c1 -35 1 -36 -5 -10 l-7 30 -93 3 -92
3 -6 -31 c-4 -16 -10 -30 -15 -30 -11 0 -12 64 -2 74 4 3 54 5 112 4 l106 -3
2 -40z m443 -25 l0 -70 -105 0 c-84 0 -105 3 -105 14 0 22 -29 46 -55 46 -12
0 -25 7 -29 15 -8 21 -28 19 -49 -6 -26 -29 -42 -19 -45 29 l-3 42 195 0 196
0 0 -70z m1628 28 c2 -23 -1 -38 -8 -38 -6 0 -8 5 -5 10 3 6 3 19 0 30 -6 19
-14 21 -98 18 l-92 -3 -3 -27 c-4 -37 -22 -36 -22 0 0 47 15 53 125 50 l100
-3 3 -37z m442 -28 l0 -70 -104 0 c-105 0 -105 0 -118 28 -8 16 -23 28 -38 30
-14 2 -29 10 -33 18 -12 21 -43 17 -59 -8 -20 -30 -38 -15 -38 33 l0 39 195 0
195 0 0 -70z m-2542 31 c1 -1 2 -10 2 -20 0 -17 -9 -20 -76 -23 -79 -3 -93 4
-80 38 5 12 19 14 78 10 40 -2 74 -5 76 -5z m2062 -21 c0 -21 -34 -28 -107
-21 -34 2 -43 7 -43 22 0 15 9 18 63 21 76 4 87 1 87 -22z m-2350 -190 c0
-138 -1 -150 -18 -150 -44 0 -59 -67 -20 -94 12 -8 25 -13 30 -10 4 3 8 0 8
-5 0 -7 -23 -11 -55 -11 l-55 0 0 203 c0 112 3 207 7 210 3 4 28 7 55 7 l48 0
0 -150z m47 -18 c2 -147 -4 -190 -21 -146 -3 9 -6 83 -6 166 0 115 3 149 13
146 9 -4 13 -48 14 -166z m303 84 l0 -84 -66 -64 -66 -64 25 -30 26 -29 40 40
41 39 0 -72 0 -72 -145 0 -145 0 0 115 c0 63 3 115 6 115 4 0 13 -8 21 -17 10
-13 16 -14 19 -6 9 20 45 63 53 63 4 0 13 -12 20 -27 10 -22 14 -24 22 -12 5
7 8 30 7 51 -1 20 4 43 11 52 27 32 -10 62 -41 33 -7 -7 -31 -12 -52 -12 -23
0 -41 -5 -43 -12 -3 -7 2 -13 11 -13 24 0 29 -20 10 -41 -34 -37 -44 -25 -44
56 l0 75 145 0 145 0 0 -84z m50 -126 c0 -180 -2 -210 -15 -210 -12 0 -15 16
-15 83 0 51 5 88 12 95 9 9 9 15 0 24 -8 8 -12 48 -12 115 0 85 3 103 15 103
13 0 15 -30 15 -210z m118 198 c13 -13 18 -361 6 -392 -4 -12 -20 -16 -55 -16
l-49 0 0 210 0 210 43 0 c24 0 48 -5 55 -12z m1543 0 c0 -7 0 -70 0 -140 l1
-128 -31 -26 c-42 -35 -41 -68 2 -94 l32 -21 -50 3 -50 3 -3 199 c-2 153 1
201 10 208 21 13 88 10 89 -4z m49 -155 c0 -112 -4 -163 -10 -153 -5 8 -10 81
-10 161 0 128 3 159 17 159 2 0 3 -75 3 -167z m310 83 l0 -84 -67 -66 -68 -65
27 -28 28 -27 40 39 40 39 0 -72 0 -72 -145 0 -145 0 1 118 c0 109 1 116 16
95 17 -26 33 -30 33 -9 0 7 10 26 22 41 l21 27 17 -22 c25 -33 44 -17 37 31
-3 22 -1 42 4 45 15 9 10 44 -6 51 -9 3 -24 -2 -33 -10 -11 -10 -23 -13 -31
-8 -17 11 -63 -1 -69 -17 -2 -7 0 -12 5 -12 4 0 15 -4 23 -10 12 -7 12 -12 -4
-29 -11 -12 -23 -21 -28 -21 -4 0 -8 34 -8 75 l0 75 145 0 145 0 0 -84z m42
-26 c-4 -141 -22 -136 -22 6 0 76 3 104 13 104 9 0 11 -27 9 -110z m112 104
c14 -5 16 -33 16 -210 l0 -204 -50 0 -49 0 -3 206 c-2 113 -1 208 1 210 7 6
67 5 85 -2z m-2424 -124 c-28 -33 -56 -57 -62 -54 -5 4 16 33 48 65 32 32 60
57 62 54 3 -2 -19 -31 -48 -65z m610 60 c0 -6 -42 -10 -105 -10 -63 0 -105 4
-105 10 0 6 42 10 105 10 63 0 105 -4 105 -10z m1460 -55 c-30 -30 -59 -55
-64 -55 -6 0 16 27 49 60 32 33 61 57 64 54 3 -2 -20 -29 -49 -59z m610 50 c0
-12 -14 -15 -67 -15 -38 0 -85 3 -105 6 -72 12 -38 24 67 24 87 0 105 -3 105
-15z m0 -90 l0 -65 -105 0 -105 0 0 59 0 60 33 4 c17 2 65 5 105 5 l72 2 0
-65z m-2070 -5 l0 -60 -105 0 -105 0 0 60 0 60 105 0 105 0 0 -60z m-425 -71
c4 -6 -3 -21 -16 -35 -17 -18 -25 -21 -36 -12 -11 9 -10 15 8 35 25 25 35 28
44 12z m2071 0 c3 -6 -5 -23 -20 -37 -20 -20 -28 -24 -38 -14 -9 9 -6 17 12
37 26 28 35 31 46 14z m54 -89 c0 -53 -4 -90 -10 -90 -11 0 -14 162 -3 173 12
13 13 7 13 -83z m-1700 70 c0 -6 -42 -10 -105 -10 -63 0 -105 4 -105 10 0 6
42 10 105 10 63 0 105 -4 105 -10z m2070 -5 c0 -17 -19 -18 -133 -9 -43 4 -77
11 -77 15 0 5 47 9 105 9 87 0 105 -3 105 -15z m0 -34 c0 -5 -9 -11 -20 -14
-11 -3 -24 -17 -30 -32 -10 -25 -14 -27 -48 -21 -20 3 -54 6 -74 6 -35 0 -38
2 -38 29 0 29 2 30 53 34 108 7 157 7 157 -2z m-2098 -17 c-12 -8 -22 -22 -22
-30 0 -11 -17 -14 -80 -14 l-80 0 0 30 0 30 102 0 c96 0 101 -1 80 -16z m-708
-21 c8 -21 -11 -53 -32 -53 -39 0 -57 50 -26 68 21 12 51 4 58 -15z m2064 -7
c6 -27 -25 -48 -49 -35 -21 11 -25 45 -6 53 24 10 52 1 55 -18z m730 -17 c-31
-20 -39 -1 -10 27 16 17 17 17 20 -1 2 -9 -2 -21 -10 -26z m-2058 16 c0 -8 -7
-15 -15 -15 -16 0 -20 12 -8 23 11 12 23 8 23 -8z m-710 -54 c0 -23 -16 -36
-25 -21 -9 14 1 40 15 40 5 0 10 -9 10 -19z m2056 -18 c-11 -11 -17 4 -9 23 7
18 8 18 11 1 2 -10 1 -21 -2 -24z m664 27 c0 -5 -4 -10 -10 -10 -5 0 -10 5
-10 10 0 6 5 10 10 10 6 0 10 -4 10 -10z m-2117 -20 c5 -18 0 -20 -53 -20 -53
0 -58 2 -53 20 4 16 14 20 53 20 39 0 49 -4 53 -20z m2073 -3 c10 -23 10 -23
-50 -19 -69 5 -71 6 -63 27 5 11 20 15 54 15 40 0 50 -4 59 -23z"/>
<path d="M980 1261 c0 -13 8 -21 23 -23 21 -3 22 -7 25 -125 3 -123 3 -123 27
-123 24 0 24 0 27 123 3 118 4 122 26 125 14 2 22 10 22 23 0 17 -8 19 -75 19
-67 0 -75 -2 -75 -19z m77 -58 c-3 -10 -5 -2 -5 17 0 19 2 27 5 18 2 -10 2
-26 0 -35z m0 -165 c-2 -13 -4 -5 -4 17 -1 22 1 32 4 23 2 -10 2 -28 0 -40z"/>
<path d="M1164 1135 l0 -145 28 0 c28 0 28 1 28 61 0 73 14 70 31 -6 l12 -55
63 0 63 0 7 35 c5 28 11 35 30 35 17 0 24 -6 24 -19 0 -37 12 -51 42 -51 23 0
28 4 24 18 -15 50 -36 145 -46 205 -12 67 -12 67 -45 67 -29 0 -33 -4 -39 -32
-26 -140 -50 -238 -57 -238 -4 0 -16 24 -27 53 -17 43 -18 54 -7 67 8 8 15 26
16 40 7 80 -19 110 -96 110 l-51 0 0 -145z m85 91 c18 -21 10 -70 -11 -74 -15
-3 -18 4 -18 42 0 47 9 57 29 32z m38 -18 c-3 -8 -6 -5 -6 6 -1 11 2 17 5 13
3 -3 4 -12 1 -19z m147 -70 c5 -21 3 -28 -9 -28 -17 0 -18 4 -9 38 8 27 9 26
18 -10z"/>
<path d="M1524 1258 c3 -13 15 -68 26 -123 12 -55 23 -110 26 -122 3 -18 11
-23 38 -23 32 0 34 2 40 48 3 26 17 91 30 145 l23 98 -31 -3 c-31 -3 -31 -3
-45 -92 -16 -100 -23 -97 -41 17 -13 76 -13 77 -43 77 -26 0 -29 -3 -23 -22z"/>
<path d="M1730 1135 l0 -145 65 0 c58 0 65 2 65 19 0 16 -8 20 -37 23 -37 3
-38 4 -41 46 l-3 42 40 0 c37 0 41 2 41 25 0 23 -4 25 -41 25 -39 0 -40 1 -37
33 3 29 6 32 41 35 29 3 37 7 37 23 0 17 -7 19 -65 19 l-65 0 0 -145z"/>
<path d="M1905 1135 l0 -145 68 0 c60 0 67 2 67 20 0 17 -7 20 -40 20 l-40 0
0 125 0 125 -27 0 -28 0 0 -145z"/>
<path d="M2170 1135 l0 -145 30 0 31 0 -7 50 c-6 49 -6 50 20 50 45 0 76 41
76 98 0 67 -27 92 -98 92 l-52 0 0 -145z m88 93 c17 -17 15 -64 -4 -82 -23
-23 -34 -11 -34 38 0 55 12 70 38 44z m39 -30 c-3 -8 -6 -5 -6 6 -1 11 2 17 5
13 3 -3 4 -12 1 -19z"/>
<path d="M2396 1258 c-3 -13 -14 -68 -26 -123 -11 -55 -23 -110 -26 -122 -6
-20 -3 -23 25 -23 24 0 31 4 31 19 0 34 12 51 35 51 19 0 24 -6 27 -32 3 -29
7 -33 34 -36 l31 -3 -23 98 c-13 54 -27 119 -30 146 -6 45 -8 47 -40 47 -27 0
-35 -5 -38 -22z m41 -147 c-15 -6 -20 8 -12 36 l8 28 6 -30 c4 -16 3 -32 -2
-34z"/>
<path d="M2587 1260 c-42 -33 -60 -133 -36 -197 20 -54 47 -73 106 -73 l53 0
0 35 c0 37 -10 44 -30 20 -7 -8 -21 -15 -31 -15 -31 0 -49 39 -49 105 0 66 18
105 49 105 10 0 24 -7 31 -15 20 -24 30 -17 30 20 l0 35 -49 0 c-34 0 -56 -6
-74 -20z"/>
<path d="M2740 1135 l0 -145 31 0 31 0 -6 48 c-7 51 0 48 36 -17 14 -26 23
-31 53 -31 l36 0 -25 33 c-13 17 -36 54 -50 80 l-25 49 39 58 c22 33 40 61 40
64 0 4 -13 6 -30 6 -23 0 -33 -7 -45 -29 -22 -44 -35 -47 -28 -6 5 34 5 35
-26 35 l-31 0 0 -145z"/>
<path d="M2930 1135 l0 -145 28 0 28 0 0 145 0 145 -28 0 -28 0 0 -145z"/>
<path d="M3034 1135 l0 -145 29 0 29 0 -4 69 c-2 38 -1 68 3 65 4 -2 17 -33
30 -69 21 -59 25 -65 51 -65 l28 0 0 145 0 145 -30 0 -30 0 6 -77 c6 -89 -3
-86 -37 15 -19 56 -23 62 -48 62 l-27 0 0 -145z m46 89 c0 -8 -4 -14 -10 -14
-5 0 -10 9 -10 21 0 11 5 17 10 14 6 -3 10 -13 10 -21z m90 -189 c0 -8 -2 -15
-4 -15 -2 0 -6 7 -10 15 -3 8 -1 15 4 15 6 0 10 -7 10 -15z"/>
<path d="M3283 1258 c-34 -38 -43 -64 -43 -123 0 -63 22 -120 52 -136 10 -5
40 -9 66 -7 l47 3 3 73 3 72 -46 0 c-38 0 -45 -3 -45 -20 0 -13 7 -20 20 -20
16 0 20 -7 20 -35 0 -41 -17 -46 -46 -14 -14 15 -19 36 -19 78 0 91 41 136 87
94 17 -15 18 -14 18 20 l0 37 -48 0 c-38 0 -53 -5 -69 -22z m-16 -140 c-2 -13
-4 -5 -4 17 -1 22 1 32 4 23 2 -10 2 -28 0 -40z m120 -75 c-2 -16 -4 -3 -4 27
0 30 2 43 4 28 2 -16 2 -40 0 -55z"/>
<path d="M3560 1135 l0 -145 65 0 c58 0 65 2 65 19 0 16 -8 20 -37 23 l-38 3
0 123 0 122 -27 0 -28 0 0 -145z m27 78 c-3 -10 -5 -4 -5 12 0 17 2 24 5 18 2
-7 2 -21 0 -30z m0 -180 c-3 -10 -5 -4 -5 12 0 17 2 24 5 18 2 -7 2 -21 0 -30z"/>
<path d="M3720 1135 l0 -145 28 0 28 0 0 145 0 145 -28 0 -28 0 0 -145z"/>
<path d="M3838 1263 c-40 -46 -29 -92 37 -151 24 -23 35 -41 33 -55 -4 -28
-43 -35 -69 -11 -18 17 -19 16 -19 -18 0 -33 3 -36 36 -41 66 -11 109 21 107
80 -1 28 -11 45 -48 83 -48 49 -56 82 -22 88 10 2 27 -4 38 -14 18 -17 19 -16
19 19 l0 37 -48 0 c-34 0 -54 -5 -64 -17z m52 -118 l45 -50 -47 45 c-27 24
-48 48 -48 54 0 5 1 7 3 5 1 -2 22 -27 47 -54z"/>
<path d="M3980 1260 c0 -15 7 -20 25 -20 28 0 30 -14 25 -167 l-2 -83 31 0 31
0 0 125 0 125 25 0 c18 0 25 5 25 20 0 18 -7 20 -80 20 -73 0 -80 -2 -80 -20z"/>
</g>
</svg>
